<?xml version="1.0" encoding="UTF-8" standalone="no" ?>
<!DOCTYPE svg PUBLIC "-//W3C//DTD SVG 1.1//EN" "http://www.w3.org/Graphics/SVG/1.1/DTD/svg11.dtd">
<svg xmlns="http://www.w3.org/2000/svg" xmlns:xlink="http://www.w3.org/1999/xlink" version="1.1" width="1280" height="1024" viewBox="0 0 1280 1024" xml:space="preserve">
<desc>Created with Fabric.js 5.3.0</desc>
<defs>
</defs>
<g transform="matrix(1 0 0 1 640 512)" id="background-logo"  >
<rect style="stroke: none; stroke-width: 0; stroke-dasharray: none; stroke-linecap: butt; stroke-dashoffset: 0; stroke-linejoin: miter; stroke-miterlimit: 4; fill: rgb(255,255,255); fill-opacity: 0; fill-rule: nonzero; opacity: 1;"  paint-order="stroke"  x="-640" y="-512" rx="0" ry="0" width="1280" height="1024" />
</g>
<g transform="matrix(1.316871231924693 0 0 1.316871231924693 260.65703577403167 511.29294814052247)" id="logo-logo"  >
<g style=""  paint-order="stroke"   >
		<g transform="matrix(0.680765627535799 0 0 0.680765627535799 0.0014750659425999402 3.4345372588094847)"  >
<linearGradient id="SVGID_112_152067" gradientUnits="userSpaceOnUse" gradientTransform="matrix(1 0 0 1 0 0)"  x1="499.531609" y1="468.1000335" x2="499.531609" y2="534.9626334">
<stop offset="0%" style="stop-color:rgb(199,199,199);stop-opacity: 1"/>
<stop offset="100%" style="stop-color:rgb(113,113,113);stop-opacity: 1"/>
</linearGradient>
<path style="stroke: none; stroke-width: 1; stroke-dasharray: none; stroke-linecap: butt; stroke-dashoffset: 0; stroke-linejoin: miter; stroke-miterlimit: 4; fill: url(#SVGID_112_152067); fill-rule: nonzero; opacity: 1;"  paint-order="stroke"  transform=" translate(-499.53160905000004, -504.5102108)" d="M 341.4965749 490.7202328 L 378.6267019 509.5702084 L 378.6267019 524.4901913 L 341.4965749 505.6402157 C 333.2465749 501.4502133 331.0866628 491.6502255 335.0266042 484.53023029999997 C 336.41674090000004 487.05018879999994 338.576653 489.24019119999997 341.4965749 490.7202327 Z M 664.0366139 484.5302304 C 662.6467213 487.05018889999997 660.4868092 489.2401913 657.5666432 490.7202328 L 620.4267506 509.5702084 L 620.4267506 524.4901913 L 657.5666432 505.6402157 C 665.8166432 501.4502133 667.9765553000001 491.6502255 664.0366139 484.53023029999997 Z" stroke-linecap="round" />
</g>
		<g transform="matrix(0.680765627535799 0 0 0.680765627535799 -0.001848976463463714 42.75032801227877)"  >
<linearGradient id="SVGID_113_152068" gradientUnits="userSpaceOnUse" gradientTransform="matrix(1 0 0 1 0 0)"  x1="499.5267262" y1="493.4657629" x2="499.5267262" y2="617.8502349">
<stop offset="0%" style="stop-color:rgb(199,199,199);stop-opacity: 1"/>
<stop offset="100%" style="stop-color:rgb(113,113,113);stop-opacity: 1"/>
</linearGradient>
<path style="stroke: none; stroke-width: 1; stroke-dasharray: none; stroke-linecap: butt; stroke-dashoffset: 0; stroke-linejoin: miter; stroke-miterlimit: 4; fill: url(#SVGID_113_152068); fill-rule: nonzero; opacity: 1;"  paint-order="stroke"  transform=" translate(-499.5267262500001, -562.2625254927711)" d="M 608.4267506 542.7702206 L 608.4267506 617.2901791 C 608.4267506 624.210223 601.3166432 628.8402279000001 594.9868092 626.0302304 L 503.40673110000006 585.3501767 C 500.9367604000001 584.2602109000001 498.11669200000006 584.2602109000001 495.6467213000001 585.3501767 L 404.0666432000001 626.0302304 C 397.7465748000001 628.840228 390.6267018000001 624.2102231 390.6267018000001 617.2901791 L 390.6267018000001 497.66023530000007 L 492.59667250000007 549.4102353000001 C 496.9567799000001 551.6201962000001 502.10668230000005 551.6201962000001 506.4567799000001 549.4102353000001 L 570.2966237 517.0102109000001 L 608.4267507000001 542.7702207000001 Z" stroke-linecap="round" />
</g>
		<g transform="matrix(0.680765627535799 0 0 0.680765627535799 0 -24.09919456008373)"  >
<path style="stroke: none; stroke-width: 1; stroke-dasharray: none; stroke-linecap: butt; stroke-dashoffset: 0; stroke-linejoin: miter; stroke-miterlimit: 4; fill: rgb(65,65,65); fill-rule: nonzero; opacity: 1;"  paint-order="stroke"  transform=" translate(-499.529442275, -464.06496693750006)" d="M 657.5629811 450.4088314 L 506.4599538 373.7234066 C 502.1039968 371.51271319999995 496.9548268 371.51271319999995 492.5988698 373.7234066 L 341.4960866 450.4088314 C 330.3178639 456.081805 330.3178639 472.0481747 341.4960866 477.7210873 L 492.5988698 554.4065731000001 C 496.9548268 556.6172054000001 502.1039968 556.6172054000001 506.4599538 554.4065731000001 L 570.2929616 522.0110043000001 L 608.4306569 546.7683285 L 608.4306569 502.65602380000007 L 657.5629811 477.7210873000001 C 668.7409596 472.04817470000006 668.7409596 456.08180510000005 657.5629811 450.40883140000005 Z M 446.9235768 442.3346127 C 455.0588307 442.3346127 461.65380139999996 448.92958339999996 461.65380139999996 457.06495939999996 L 461.65380139999996 471.79530609999995 L 446.9235768 471.79530609999995 C 438.7880788 471.79530609999995 432.193108 465.2003354 432.193108 457.06495939999996 C 432.193108 448.92958339999996 438.78807869999997 442.3346127 446.9235768 442.3346127 Z M 501.1996999 539.9835995 C 500.6684499 541.0202206 499.61766869999997 541.616412 498.5268483 541.616412 C 498.0668874 541.616412 497.60009049999996 541.510455 497.16161389999996 541.2858456 L 348.38231699999994 465.0744198 C 346.9077075999999 464.3190487 346.32469979999996 462.5114315 347.0805591999999 461.0368221 C 347.83641859999994 459.5617244 349.6430591999999 458.9787166 351.1186450999999 459.734576 L 499.89794199999994 535.9460018 C 501.37255139999996 536.7013729 501.9555591999999 538.5089901 501.19969979999996 539.9835995 Z M 514.2597584 471.795306 L 499.5292896 471.795306 C 491.3940357 471.795306 484.79906500000004 465.2003353 484.79906500000004 457.0649593 C 484.79906500000004 448.9295833 491.3940357 442.3346126 499.5292896 442.3346126 L 499.5295337 442.3346126 C 507.6647876 442.3346126 514.2597583 448.9295833 514.2597583 457.0649593 L 514.2597583 471.795306 Z M 566.8657155 471.795306 L 552.1352466999999 471.795306 C 543.9999928 471.795306 537.4050220999999 465.2003353 537.4050220999999 457.0649593 C 537.4050220999999 448.9295833 543.9999927999999 442.3346126 552.1352466999999 442.3346126 C 560.2707446999999 442.3346126 566.8657155 448.9295833 566.8657155 457.0649593 L 566.8657155 471.795306 Z" stroke-linecap="round" />
</g>
</g>
</g>
<g transform="matrix(1.9211538461538462 0 0 1.9211538461538462 810.7546497886619 492.3261941440348)" id="text-logo"  >
<g style=""  paint-order="stroke"   >
		<g transform="matrix(1 0 0 1 0 0)" id="text-logo-path-0"  >
<path style="stroke: none; stroke-width: 0; stroke-dasharray: none; stroke-linecap: butt; stroke-dashoffset: 0; stroke-linejoin: miter; stroke-miterlimit: 4; fill: rgb(65,65,65); fill-rule: nonzero; opacity: 1;"  paint-order="stroke"  transform=" translate(-183.135, 12.6)" d="M 21.56 -25.2 L 21.56 -25.2 L 28.15 -25.2 Q 28.55 -25.2 28.84 -24.91 Q 29.12 -24.62 29.12 -24.23 L 29.12 -24.23 L 29.12 -0.97 Q 29.12 -0.58 28.84 -0.29 Q 28.55 0 28.15 0 L 28.15 0 L 21.64 0 Q 21.24 0 20.95 -0.29 Q 20.66 -0.58 20.66 -0.97 L 20.66 -0.97 L 20.66 -12.13 L 18.04 -6.95 Q 17.82 -6.52 17.39 -6.28 Q 16.96 -6.05 16.52 -6.05 L 16.52 -6.05 L 14.08 -6.05 Q 13.46 -6.05 13.07 -6.37 Q 12.67 -6.7 12.56 -6.95 L 12.56 -6.95 L 9.94 -12.13 L 9.94 -0.97 Q 9.94 -0.58 9.65 -0.29 Q 9.36 0 8.96 0 L 8.96 0 L 2.45 0 Q 2.05 0 1.76 -0.29 Q 1.48 -0.58 1.48 -0.97 L 1.48 -0.97 L 1.48 -24.23 Q 1.48 -24.62 1.76 -24.91 Q 2.05 -25.2 2.45 -25.2 L 2.45 -25.2 L 9.04 -25.2 Q 10.04 -25.2 10.58 -24.23 L 10.58 -24.23 L 15.3 -15.59 L 20.02 -24.23 Q 20.56 -25.2 21.56 -25.2 Z M 39.1 0 L 39.1 0 L 32.29 0 Q 31.97 0 31.73 -0.23 Q 31.5 -0.47 31.5 -0.68 Q 31.5 -0.9 31.54 -1.01 L 31.54 -1.01 L 39.38 -24.01 Q 39.71 -25.2 41 -25.2 L 41 -25.2 L 51.01 -25.2 Q 52.31 -25.2 52.63 -24.01 L 52.63 -24.01 L 60.48 -1.01 Q 60.52 -0.9 60.52 -0.68 Q 60.52 -0.47 60.28 -0.23 Q 60.05 0 59.72 0 L 59.72 0 L 52.92 0 Q 51.77 0 51.3 -1.22 L 51.3 -1.22 L 50.4 -3.74 L 41.62 -3.74 L 40.72 -1.22 Q 40.25 0 39.1 0 Z M 43.45 -10.76 L 48.56 -10.76 L 46.01 -18.25 L 43.45 -10.76 Z M 64.08 -25.2 L 64.08 -25.2 L 88.92 -25.2 Q 89.32 -25.2 89.6 -24.91 Q 89.89 -24.62 89.89 -24.23 L 89.89 -24.23 L 89.89 -18.43 Q 89.89 -18.04 89.6 -17.75 Q 89.32 -17.46 88.92 -17.46 L 88.92 -17.46 L 81.18 -17.46 L 81.18 -0.97 Q 81.18 -0.58 80.89 -0.29 Q 80.6 0 80.21 0 L 80.21 0 L 72.79 0 Q 72.4 0 72.11 -0.29 Q 71.82 -0.58 71.82 -0.97 L 71.82 -0.97 L 71.82 -17.46 L 64.08 -17.46 Q 63.68 -17.46 63.4 -17.75 Q 63.11 -18.04 63.11 -18.43 L 63.11 -18.43 L 63.11 -24.23 Q 63.11 -24.62 63.4 -24.91 Q 63.68 -25.2 64.08 -25.2 Z M 111.67 -25.2 L 111.67 -25.2 L 119.09 -25.2 Q 119.48 -25.2 119.77 -24.91 Q 120.06 -24.62 120.06 -24.23 L 120.06 -24.23 L 120.06 -0.97 Q 120.06 -0.58 119.77 -0.29 Q 119.48 0 119.09 0 L 119.09 0 L 111.67 0 Q 111.28 0 110.99 -0.29 Q 110.7 -0.58 110.7 -0.97 L 110.7 -0.97 L 110.7 -8.64 L 103.5 -8.64 L 103.5 -0.97 Q 103.5 -0.58 103.21 -0.29 Q 102.92 0 102.53 0 L 102.53 0 L 95.11 0 Q 94.72 0 94.43 -0.27 Q 94.14 -0.54 94.14 -0.97 L 94.14 -0.97 L 94.14 -24.23 Q 94.14 -24.62 94.43 -24.91 Q 94.72 -25.2 95.11 -25.2 L 95.11 -25.2 L 102.53 -25.2 Q 102.92 -25.2 103.21 -24.91 Q 103.5 -24.62 103.5 -24.23 L 103.5 -24.23 L 103.5 -16.85 L 110.7 -16.85 L 110.7 -24.23 Q 110.7 -24.62 110.99 -24.91 Q 111.28 -25.2 111.67 -25.2 Z M 149.11 -17.82 L 149.11 -17.82 L 142.6 -17.82 L 142.6 -7.38 L 149.11 -7.38 Q 149.51 -7.38 149.8 -7.09 Q 150.08 -6.8 150.08 -6.41 L 150.08 -6.41 L 150.08 -0.97 Q 150.08 -0.58 149.8 -0.29 Q 149.51 0 149.11 0 L 149.11 0 L 126.29 0 Q 125.89 0 125.6 -0.29 Q 125.32 -0.58 125.32 -0.97 L 125.32 -0.97 L 125.32 -6.41 Q 125.32 -6.8 125.6 -7.09 Q 125.89 -7.38 126.29 -7.38 L 126.29 -7.38 L 132.88 -7.38 L 132.88 -17.82 L 126.29 -17.82 Q 125.89 -17.82 125.6 -18.11 Q 125.32 -18.4 125.32 -18.79 L 125.32 -18.79 L 125.32 -24.23 Q 125.32 -24.62 125.6 -24.91 Q 125.89 -25.2 126.29 -25.2 L 126.29 -25.2 L 149.11 -25.2 Q 149.51 -25.2 149.8 -24.91 Q 150.08 -24.62 150.08 -24.23 L 150.08 -24.23 L 150.08 -18.79 Q 150.08 -18.4 149.8 -18.11 Q 149.51 -17.82 149.11 -17.82 Z M 157.57 -25.2 L 157.57 -25.2 L 180.47 -25.2 Q 180.86 -25.2 181.15 -24.91 Q 181.44 -24.62 181.44 -24.23 L 181.44 -24.23 L 181.44 -18.76 Q 181.44 -18.36 181.15 -18.07 Q 180.86 -17.78 180.47 -17.78 L 180.47 -17.78 L 166.32 -17.78 L 166.32 -15.48 L 178.13 -15.48 Q 178.52 -15.48 178.81 -15.19 Q 179.1 -14.9 179.1 -14.51 L 179.1 -14.51 L 179.1 -9.07 Q 179.1 -8.68 178.81 -8.39 Q 178.52 -8.1 178.13 -8.1 L 178.13 -8.1 L 166.32 -8.1 L 166.32 -0.97 Q 166.32 -0.58 166.03 -0.29 Q 165.74 0 165.35 0 L 165.35 0 L 157.57 0 Q 157.18 0 156.89 -0.29 Q 156.6 -0.58 156.6 -0.97 L 156.6 -0.97 L 156.6 -24.23 Q 156.6 -24.62 156.89 -24.91 Q 157.18 -25.2 157.57 -25.2 Z M 204.55 -25.2 L 204.55 -25.2 L 212.08 -25.2 Q 212.4 -25.2 212.63 -24.97 Q 212.87 -24.73 212.87 -24.48 Q 212.87 -24.23 212.76 -24.01 L 212.76 -24.01 L 203.69 -9 L 203.69 -0.97 Q 203.69 -0.58 203.4 -0.29 Q 203.11 0 202.72 0 L 202.72 0 L 195.05 0 Q 194.65 0 194.36 -0.29 Q 194.08 -0.58 194.08 -0.97 L 194.08 -0.97 L 194.08 -9 L 185.04 -24.01 Q 184.93 -24.23 184.93 -24.48 Q 184.93 -24.73 185.17 -24.97 Q 185.4 -25.2 185.72 -25.2 L 185.72 -25.2 L 193.32 -25.2 Q 194.33 -25.2 194.8 -24.37 L 194.8 -24.37 L 198.86 -17.24 L 203.04 -24.3 Q 203.58 -25.2 204.55 -25.2 Z M 259.56 -24.23 L 259.56 -7.38 L 271.84 -7.38 Q 272.23 -7.38 272.52 -7.09 Q 272.81 -6.8 272.81 -6.41 L 272.81 -6.41 L 272.81 -0.97 Q 272.81 -0.58 272.52 -0.29 Q 272.23 0 271.84 0 L 271.84 0 L 250.81 0 Q 250.42 0 250.13 -0.29 Q 249.84 -0.58 249.84 -0.97 L 249.84 -0.97 L 249.84 -24.23 Q 249.84 -24.62 250.13 -24.91 Q 250.42 -25.2 250.81 -25.2 L 250.81 -25.2 L 258.59 -25.2 Q 258.98 -25.2 259.27 -24.91 Q 259.56 -24.62 259.56 -24.23 L 259.56 -24.23 Z M 283.9 0 L 283.9 0 L 277.09 0 Q 276.77 0 276.53 -0.23 Q 276.3 -0.47 276.3 -0.68 Q 276.3 -0.9 276.34 -1.01 L 276.34 -1.01 L 284.18 -24.01 Q 284.51 -25.2 285.8 -25.2 L 285.8 -25.2 L 295.81 -25.2 Q 297.11 -25.2 297.43 -24.01 L 297.43 -24.01 L 305.28 -1.01 Q 305.32 -0.9 305.32 -0.68 Q 305.32 -0.47 305.08 -0.23 Q 304.85 0 304.52 0 L 304.52 0 L 297.72 0 Q 296.57 0 296.1 -1.22 L 296.1 -1.22 L 295.2 -3.74 L 286.42 -3.74 L 285.52 -1.22 Q 285.05 0 283.9 0 Z M 288.25 -10.76 L 293.36 -10.76 L 290.81 -18.25 L 288.25 -10.76 Z M 335.02 -7.92 L 335.02 -7.92 Q 335.02 0 324.86 0 L 324.86 0 L 310.03 0 Q 309.64 0 309.35 -0.29 Q 309.06 -0.58 309.06 -0.97 L 309.06 -0.97 L 309.06 -24.23 Q 309.06 -24.62 309.35 -24.91 Q 309.64 -25.2 310.03 -25.2 L 310.03 -25.2 L 324.5 -25.2 Q 329.62 -25.2 332.05 -23.35 Q 334.48 -21.49 334.48 -17.75 L 334.48 -17.75 L 334.48 -17.64 Q 334.48 -15.91 333.54 -14.69 Q 332.6 -13.46 331.6 -13.14 L 331.6 -13.14 Q 333 -12.71 334.01 -11.25 Q 335.02 -9.79 335.02 -7.92 Z M 323.64 -9.72 L 318.42 -9.72 L 318.42 -6.19 L 323.64 -6.19 Q 324.47 -6.19 324.88 -6.75 Q 325.3 -7.31 325.3 -7.99 L 325.3 -7.99 L 325.3 -8.03 Q 325.3 -8.71 324.85 -9.22 Q 324.4 -9.72 323.64 -9.72 L 323.64 -9.72 Z M 324.34 -16.25 Q 324.72 -16.78 324.72 -17.42 Q 324.72 -18.07 324.34 -18.54 Q 323.96 -19.01 323.24 -19.01 L 323.24 -19.01 L 318.42 -19.01 L 318.42 -15.73 L 323.24 -15.73 Q 323.96 -15.73 324.34 -16.25 Z M 353.88 -16.06 Q 359.78 -15.37 362.29 -13.52 Q 364.79 -11.66 364.79 -7.96 Q 364.79 -4.25 361.15 -1.94 Q 357.52 0.36 351.5 0.36 Q 345.49 0.36 342.16 -1.85 Q 338.83 -4.07 338.83 -7.31 L 338.83 -7.31 Q 338.83 -8.1 339.66 -8.1 L 339.66 -8.1 L 347.04 -8.1 Q 347.8 -8.1 348.26 -7.63 L 348.26 -7.63 Q 349.27 -6.66 351.76 -6.66 L 351.76 -6.66 Q 355.18 -6.66 355.18 -7.7 L 355.18 -7.7 Q 355.18 -8.35 354.1 -8.73 Q 353.02 -9.11 349.81 -9.47 L 349.81 -9.47 Q 339.62 -10.69 339.62 -17.28 L 339.62 -17.28 Q 339.62 -20.99 342.9 -23.27 Q 346.18 -25.56 351.67 -25.56 Q 357.16 -25.56 360.54 -23.17 Q 363.92 -20.77 363.92 -18.11 L 363.92 -18.11 Q 363.92 -17.75 363.69 -17.53 Q 363.46 -17.32 363.06 -17.32 L 363.06 -17.32 L 355.32 -17.32 Q 354.67 -17.32 354.2 -17.75 L 354.2 -17.75 Q 353.34 -18.54 351.61 -18.54 L 351.61 -18.54 Q 349.2 -18.54 349.2 -17.53 L 349.2 -17.53 Q 349.2 -16.99 350.14 -16.69 Q 351.07 -16.38 353.88 -16.06 L 353.88 -16.06 Z" stroke-linecap="round" />
</g>
</g>
</g>
<g transform="matrix(1.9211538461538462 0 0 1.9211538461538462 825.013776699152 545.4124739836014)" id="tagline-eba67400-924f-4f64-8459-bbe602729e83-logo"  >
<g style=""  paint-order="stroke"   >
		<g transform="matrix(1 0 0 1 0 0)" id="tagline-eba67400-924f-4f64-8459-bbe602729e83-logo-path-0"  >
<path style="stroke: rgb(255,255,255); stroke-width: 0; stroke-dasharray: none; stroke-linecap: butt; stroke-dashoffset: 0; stroke-linejoin: miter; stroke-miterlimit: 4; fill: rgb(137,137,137); fill-rule: nonzero; opacity: 1;"  paint-order="stroke"  transform=" translate(-166.77, 6.489999999999999)" d="M 9.2 0 L 8.48 -2.11 L 4.03 -2.11 L 3.32 0 L 0.27 0 L 4.59 -11.93 L 7.96 -11.93 L 12.27 0 L 9.2 0 Z M 4.79 -4.35 L 7.74 -4.35 L 6.26 -8.72 L 4.79 -4.35 Z M 19.7 -11.93 L 22.61 -11.93 L 22.61 0 L 19.7 0 L 19.7 -11.93 Z M 48.57 -0.27 L 55.59 -0.27 L 55.59 0.77 L 40.46 0.77 L 40.46 -0.27 L 47.33 -0.27 L 47.33 -1.73 L 41.73 -1.73 L 41.73 -2.75 L 47.33 -2.75 L 47.33 -3.93 L 42.25 -3.93 L 42.25 -9.16 L 47.33 -9.16 L 47.33 -10.18 L 40.55 -10.18 L 40.55 -11.22 L 47.33 -11.22 L 47.33 -12.44 Q 46 -12.36 44.68 -12.31 Q 43.35 -12.26 42.09 -12.22 L 42.09 -12.22 Q 42.08 -12.46 41.99 -12.74 Q 41.91 -13.02 41.82 -13.23 L 41.82 -13.23 Q 43.3 -13.26 44.88 -13.34 Q 46.46 -13.41 47.97 -13.53 Q 49.49 -13.65 50.83 -13.8 Q 52.17 -13.94 53.18 -14.13 L 53.18 -14.13 L 53.86 -13.14 Q 52.77 -12.94 51.42 -12.79 Q 50.07 -12.65 48.57 -12.53 L 48.57 -12.53 L 48.57 -11.22 L 55.49 -11.22 L 55.49 -10.18 L 48.57 -10.18 L 48.57 -9.16 L 53.89 -9.16 L 53.89 -3.93 L 48.57 -3.93 L 48.57 -2.75 L 54.52 -2.75 L 54.52 -1.73 L 48.57 -1.73 L 48.57 -0.27 Z M 43.49 -8.25 L 43.49 -6.97 L 47.33 -6.97 L 47.33 -8.25 L 43.49 -8.25 Z M 52.62 -8.25 L 48.57 -8.25 L 48.57 -6.97 L 52.62 -6.97 L 52.62 -8.25 Z M 43.49 -4.83 L 47.33 -4.83 L 47.33 -6.12 L 43.49 -6.12 L 43.49 -4.83 Z M 52.62 -4.83 L 52.62 -6.12 L 48.57 -6.12 L 48.57 -4.83 L 52.62 -4.83 Z M 71.18 -12.44 L 71.18 -11.39 L 63.73 -11.39 L 63.73 -12.44 L 67.06 -12.44 Q 66.89 -12.84 66.7 -13.24 Q 66.5 -13.65 66.32 -13.99 L 66.32 -13.99 L 67.46 -14.28 Q 67.69 -13.84 67.94 -13.35 Q 68.19 -12.87 68.36 -12.44 L 68.36 -12.44 L 71.18 -12.44 Z M 78.86 -8.53 L 78.86 -7.34 L 76.99 -7.34 L 76.99 1.22 L 75.77 1.22 L 75.77 -7.34 L 73.2 -7.34 L 73.2 -6.8 Q 73.2 -5.88 73.14 -4.84 Q 73.08 -3.79 72.9 -2.74 Q 72.71 -1.68 72.36 -0.68 Q 72.01 0.32 71.43 1.14 L 71.43 1.14 Q 71.26 0.95 70.97 0.72 Q 70.67 0.49 70.47 0.37 L 70.47 0.37 Q 70.99 -0.39 71.31 -1.29 Q 71.62 -2.19 71.78 -3.14 Q 71.94 -4.08 71.99 -5.02 Q 72.03 -5.95 72.03 -6.8 L 72.03 -6.8 L 72.03 -12.6 Q 72.74 -12.72 73.48 -12.86 Q 74.22 -13.01 74.92 -13.18 Q 75.62 -13.36 76.24 -13.55 Q 76.86 -13.74 77.32 -13.92 L 77.32 -13.92 L 78.32 -12.99 Q 77.79 -12.78 77.18 -12.61 Q 76.57 -12.43 75.91 -12.27 Q 75.24 -12.12 74.55 -11.99 Q 73.86 -11.87 73.2 -11.76 L 73.2 -11.76 L 73.2 -8.53 L 78.86 -8.53 Z M 71.25 -4.66 L 68.09 -4.66 L 68.09 -0.34 Q 68.09 0.1 67.98 0.35 Q 67.88 0.6 67.59 0.73 L 67.59 0.73 Q 67.3 0.87 66.86 0.9 Q 66.42 0.94 65.81 0.94 L 65.81 0.94 Q 65.77 0.7 65.67 0.4 Q 65.57 0.1 65.43 -0.14 L 65.43 -0.14 Q 65.88 -0.12 66.23 -0.12 Q 66.59 -0.12 66.72 -0.14 L 66.72 -0.14 Q 66.86 -0.14 66.89 -0.18 Q 66.93 -0.22 66.93 -0.36 L 66.93 -0.36 L 66.93 -4.66 L 63.55 -4.66 L 63.55 -5.75 L 66.93 -5.75 L 66.93 -7.53 L 63.46 -7.53 L 63.46 -8.6 L 68.15 -8.6 Q 68.39 -9.2 68.65 -9.95 Q 68.92 -10.71 69.07 -11.31 L 69.07 -11.31 L 70.23 -11.05 Q 70.01 -10.44 69.77 -9.79 Q 69.53 -9.15 69.29 -8.6 L 69.29 -8.6 L 71.45 -8.6 L 71.45 -7.53 L 68.09 -7.53 L 68.09 -5.75 L 71.25 -5.75 L 71.25 -4.66 Z M 64.84 -11.03 L 65.86 -11.27 Q 65.99 -11 66.1 -10.68 Q 66.22 -10.37 66.32 -10.05 Q 66.42 -9.72 66.49 -9.43 Q 66.56 -9.13 66.57 -8.89 L 66.57 -8.89 L 65.5 -8.6 Q 65.45 -9.1 65.26 -9.78 Q 65.08 -10.46 64.84 -11.03 L 64.84 -11.03 Z M 68.77 -3.66 L 69.63 -4.1 Q 69.84 -3.79 70.05 -3.43 Q 70.26 -3.08 70.45 -2.72 Q 70.64 -2.36 70.79 -2.03 Q 70.94 -1.7 71.04 -1.43 L 71.04 -1.43 L 70.16 -0.92 Q 70.06 -1.19 69.9 -1.53 Q 69.75 -1.87 69.56 -2.24 Q 69.38 -2.6 69.17 -2.97 Q 68.97 -3.33 68.77 -3.66 L 68.77 -3.66 Z M 64.97 -4.03 L 66.01 -3.76 Q 65.72 -2.87 65.24 -2.01 Q 64.75 -1.16 64.26 -0.56 L 64.26 -0.56 Q 64.11 -0.7 63.84 -0.89 Q 63.58 -1.09 63.39 -1.21 L 63.39 -1.21 Q 63.9 -1.75 64.31 -2.49 Q 64.72 -3.23 64.97 -4.03 L 64.97 -4.03 Z M 88.43 -11.1 L 88.43 -8.62 L 87.19 -8.62 L 87.19 -12.31 L 93.79 -12.31 Q 93.64 -12.7 93.42 -13.15 Q 93.21 -13.6 93.01 -13.97 L 93.01 -13.97 L 94.23 -14.33 Q 94.52 -13.86 94.8 -13.29 Q 95.08 -12.73 95.23 -12.31 L 95.23 -12.31 L 101.29 -12.31 L 101.29 -8.62 L 100.01 -8.62 L 100.01 -11.1 L 88.43 -11.1 Z M 94.88 -3.84 L 94.88 -0.44 Q 95.52 -0.31 96.21 -0.26 Q 96.9 -0.22 97.67 -0.22 L 97.67 -0.22 Q 97.9 -0.22 98.49 -0.22 Q 99.08 -0.22 99.76 -0.22 Q 100.44 -0.22 101.07 -0.23 Q 101.69 -0.24 102 -0.26 L 102 -0.26 Q 101.85 -0.02 101.71 0.36 Q 101.58 0.73 101.52 1.02 L 101.52 1.02 L 97.6 1.02 Q 96.27 1.02 95.13 0.88 Q 93.99 0.73 93.04 0.35 Q 92.09 -0.03 91.32 -0.71 Q 90.56 -1.39 89.98 -2.48 L 89.98 -2.48 Q 89.1 -0.07 87.45 1.36 L 87.45 1.36 Q 87.3 1.17 86.98 0.9 Q 86.67 0.63 86.43 0.49 L 86.43 0.49 Q 87.86 -0.6 88.59 -2.35 Q 89.32 -4.11 89.61 -6.43 L 89.61 -6.43 L 90.87 -6.29 Q 90.78 -5.7 90.69 -5.15 Q 90.59 -4.61 90.47 -4.1 L 90.47 -4.1 Q 90.97 -2.74 91.76 -1.96 Q 92.55 -1.17 93.59 -0.78 L 93.59 -0.78 L 93.59 -7.8 L 89.37 -7.8 L 89.37 -9.01 L 99.21 -9.01 L 99.21 -7.8 L 94.88 -7.8 L 94.88 -5.03 L 99.91 -5.03 L 99.91 -3.84 L 94.88 -3.84 Z M 124.88 -8.36 L 124.88 -7.36 L 109.87 -7.36 L 109.87 -8.36 L 116.71 -8.36 L 116.71 -9.45 L 111.5 -9.45 L 111.5 -10.4 L 116.71 -10.4 L 116.71 -11.44 L 110.6 -11.44 L 110.6 -12.43 L 114.09 -12.43 Q 113.9 -12.77 113.65 -13.14 Q 113.41 -13.52 113.15 -13.84 L 113.15 -13.84 L 114.24 -14.21 Q 114.61 -13.82 114.95 -13.35 Q 115.28 -12.87 115.43 -12.48 L 115.43 -12.48 L 115.31 -12.43 L 119.37 -12.43 Q 119.61 -12.82 119.89 -13.35 Q 120.17 -13.87 120.34 -14.26 L 120.34 -14.26 L 121.69 -13.91 Q 121.43 -13.52 121.17 -13.13 Q 120.9 -12.75 120.67 -12.43 L 120.67 -12.43 L 124.17 -12.43 L 124.17 -11.44 L 117.98 -11.44 L 117.98 -10.4 L 123.27 -10.4 L 123.27 -9.45 L 117.98 -9.45 L 117.98 -8.36 L 124.88 -8.36 Z M 122.54 -3.42 L 123.61 -3.04 Q 123.17 -2.45 122.59 -1.93 Q 122.01 -1.41 121.33 -0.97 L 121.33 -0.97 Q 121.82 -0.43 122.37 -0.14 Q 122.93 0.15 123.51 0.14 L 123.51 0.14 Q 123.85 0.12 123.98 -0.23 Q 124.12 -0.58 124.19 -1.48 L 124.19 -1.48 Q 124.37 -1.33 124.64 -1.19 Q 124.92 -1.05 125.15 -0.99 L 125.15 -0.99 Q 125.09 -0.31 124.96 0.13 Q 124.83 0.56 124.64 0.82 Q 124.44 1.07 124.15 1.18 Q 123.86 1.29 123.45 1.29 L 123.45 1.29 Q 122.54 1.29 121.75 0.87 Q 120.96 0.44 120.29 -0.34 L 120.29 -0.34 Q 119.39 0.15 118.43 0.54 Q 117.47 0.94 116.5 1.24 L 116.5 1.24 Q 116.4 1.05 116.2 0.74 Q 115.99 0.43 115.84 0.24 L 115.84 0.24 Q 116.84 -0.02 117.82 -0.38 Q 118.8 -0.75 119.68 -1.21 L 119.68 -1.21 Q 119.03 -2.28 118.63 -3.64 L 118.63 -3.64 L 114.67 -3.64 L 114.67 -2.5 L 117.71 -2.74 L 117.71 -1.84 Q 116.94 -1.75 116.19 -1.69 Q 115.43 -1.63 114.67 -1.55 L 114.67 -1.55 L 114.67 0.05 Q 114.67 0.54 114.52 0.78 Q 114.38 1.02 114.02 1.12 L 114.02 1.12 Q 113.65 1.26 113.03 1.28 Q 112.42 1.29 111.45 1.29 L 111.45 1.29 Q 111.4 1.07 111.28 0.79 Q 111.16 0.51 111.06 0.29 L 111.06 0.29 Q 111.4 0.31 111.73 0.31 Q 112.06 0.32 112.34 0.32 Q 112.61 0.32 112.81 0.31 Q 113.02 0.31 113.12 0.31 L 113.12 0.31 Q 113.31 0.31 113.38 0.26 Q 113.46 0.2 113.46 0.02 L 113.46 0.02 L 113.46 -1.45 L 109.91 -1.12 L 109.79 -2.14 Q 110.55 -2.19 111.48 -2.25 Q 112.4 -2.31 113.46 -2.4 L 113.46 -2.4 L 113.46 -3.64 L 109.85 -3.64 L 109.85 -4.62 L 113.46 -4.62 L 113.46 -5.78 Q 112.66 -5.7 111.88 -5.64 Q 111.1 -5.58 110.35 -5.54 L 110.35 -5.54 Q 110.31 -5.73 110.23 -5.97 Q 110.14 -6.21 110.06 -6.38 L 110.06 -6.38 Q 110.93 -6.43 111.85 -6.51 Q 112.78 -6.6 113.65 -6.7 Q 114.53 -6.8 115.31 -6.93 Q 116.09 -7.06 116.65 -7.21 L 116.65 -7.21 L 117.42 -6.41 Q 116.82 -6.27 116.13 -6.15 Q 115.43 -6.02 114.67 -5.93 L 114.67 -5.93 L 114.67 -4.62 L 118.37 -4.62 Q 118.24 -5.22 118.16 -5.84 Q 118.08 -6.46 118.05 -7.11 L 118.05 -7.11 L 119.27 -7.11 Q 119.31 -6.44 119.38 -5.82 Q 119.46 -5.2 119.6 -4.62 L 119.6 -4.62 L 124.93 -4.62 L 124.93 -3.64 L 119.87 -3.64 Q 120.21 -2.62 120.72 -1.8 L 120.72 -1.8 Q 121.82 -2.52 122.54 -3.42 L 122.54 -3.42 Z M 123.96 -5.63 L 123.23 -4.79 Q 123.03 -4.98 122.71 -5.19 Q 122.4 -5.41 122.03 -5.62 Q 121.67 -5.83 121.28 -6.03 Q 120.89 -6.22 120.53 -6.38 L 120.53 -6.38 L 121.21 -7.12 Q 121.57 -6.99 121.97 -6.81 Q 122.37 -6.63 122.73 -6.43 Q 123.1 -6.24 123.42 -6.03 Q 123.74 -5.81 123.96 -5.63 L 123.96 -5.63 Z M 134.52 -7.21 L 134.52 -5.1 L 133.31 -5.1 L 133.31 -8.18 L 134.67 -8.18 L 134.33 -13.23 Q 134.71 -13.29 135.15 -13.4 Q 135.59 -13.5 136.03 -13.61 Q 136.48 -13.72 136.89 -13.84 Q 137.31 -13.96 137.62 -14.06 L 137.62 -14.06 L 138.19 -13.28 Q 137.63 -13.07 136.93 -12.91 Q 136.22 -12.75 135.56 -12.61 L 135.56 -12.61 L 135.63 -11.78 L 138.09 -11.78 L 138.09 -10.91 L 135.68 -10.91 L 135.75 -10 L 138.16 -10 L 138.16 -9.13 L 135.8 -9.13 L 135.86 -8.18 L 145.18 -8.18 Q 145.21 -8.42 145.23 -8.64 Q 145.25 -8.87 145.28 -9.13 L 145.28 -9.13 L 142.82 -9.13 L 142.82 -10 L 145.35 -10 L 145.44 -10.91 L 142.92 -10.91 L 142.92 -11.78 L 145.49 -11.78 L 145.54 -12.7 L 142.83 -12.7 L 142.83 -13.57 L 146.76 -13.57 Q 146.73 -12.94 146.68 -12.23 Q 146.64 -11.53 146.59 -10.81 Q 146.54 -10.1 146.49 -9.42 Q 146.44 -8.74 146.39 -8.18 L 146.39 -8.18 L 147.71 -8.18 L 147.71 -5.1 L 146.47 -5.1 L 146.47 -7.21 L 134.52 -7.21 Z M 142.43 -11.97 L 141.76 -11.34 Q 141.56 -11.53 141.24 -11.76 Q 140.93 -11.99 140.59 -12.21 L 140.59 -12.21 Q 140.2 -11.92 139.8 -11.65 Q 139.4 -11.39 139.01 -11.19 L 139.01 -11.19 Q 138.91 -11.31 138.69 -11.49 Q 138.47 -11.68 138.29 -11.8 L 138.29 -11.8 Q 138.69 -11.99 139.07 -12.21 Q 139.45 -12.43 139.81 -12.67 L 139.81 -12.67 Q 139.52 -12.85 139.21 -13 Q 138.91 -13.14 138.62 -13.28 L 138.62 -13.28 L 139.23 -13.84 Q 139.54 -13.7 139.85 -13.55 Q 140.16 -13.4 140.5 -13.21 L 140.5 -13.21 Q 140.95 -13.6 141.3 -14.04 L 141.3 -14.04 L 142.19 -13.8 Q 141.78 -13.28 141.25 -12.77 L 141.25 -12.77 Q 141.59 -12.55 141.89 -12.35 Q 142.19 -12.16 142.43 -11.97 L 142.43 -11.97 Z M 142.48 -8.93 L 141.8 -8.31 Q 141.58 -8.55 141.26 -8.79 Q 140.95 -9.03 140.57 -9.3 L 140.57 -9.3 Q 140.15 -8.96 139.72 -8.7 Q 139.3 -8.43 138.87 -8.19 L 138.87 -8.19 Q 138.79 -8.33 138.57 -8.53 Q 138.35 -8.72 138.18 -8.86 L 138.18 -8.86 Q 138.6 -9.04 139 -9.28 Q 139.4 -9.52 139.79 -9.79 L 139.79 -9.79 Q 139.49 -9.98 139.17 -10.15 Q 138.86 -10.32 138.57 -10.46 L 138.57 -10.46 L 139.2 -11.02 Q 139.52 -10.88 139.84 -10.7 Q 140.16 -10.52 140.5 -10.34 L 140.5 -10.34 Q 140.74 -10.54 140.96 -10.77 Q 141.17 -11 141.35 -11.24 L 141.35 -11.24 L 142.24 -10.95 Q 141.81 -10.39 141.25 -9.86 L 141.25 -9.86 Q 141.61 -9.62 141.92 -9.39 Q 142.24 -9.16 142.48 -8.93 L 142.48 -8.93 Z M 148.05 -3.08 L 148.05 -2.01 L 141.25 -2.01 L 141.25 -0.05 Q 141.25 0.44 141.12 0.7 Q 140.98 0.95 140.59 1.09 L 140.59 1.09 Q 140.18 1.22 139.53 1.24 Q 138.87 1.26 137.85 1.26 L 137.85 1.26 Q 137.8 1.02 137.67 0.72 Q 137.55 0.43 137.41 0.19 L 137.41 0.19 Q 138.21 0.22 138.85 0.22 Q 139.49 0.22 139.67 0.22 L 139.67 0.22 Q 139.89 0.2 139.96 0.15 Q 140.03 0.1 140.03 -0.09 L 140.03 -0.09 L 140.03 -2.01 L 132.94 -2.01 L 132.94 -3.08 L 140.03 -3.08 L 140.03 -3.81 Q 140.71 -4.05 141.41 -4.39 Q 142.12 -4.73 142.73 -5.1 L 142.73 -5.1 L 136.09 -5.1 L 136.09 -6.05 L 144.07 -6.05 L 144.33 -6.12 L 145.09 -5.49 Q 144.3 -4.88 143.28 -4.33 Q 142.27 -3.79 141.25 -3.38 L 141.25 -3.38 L 141.25 -3.08 L 148.05 -3.08 Z M 164.29 -0.46 L 171.17 -0.46 L 171.17 0.77 L 156.11 0.77 L 156.11 -0.46 L 163 -0.46 L 163 -4.78 L 157.95 -4.78 L 157.95 -6 L 163 -6 L 163 -9.71 L 159 -9.71 Q 158.17 -8.06 157.22 -6.94 L 157.22 -6.94 Q 157.03 -7.09 156.68 -7.32 Q 156.33 -7.55 156.08 -7.68 L 156.08 -7.68 Q 156.6 -8.25 157.06 -8.95 Q 157.52 -9.66 157.92 -10.46 Q 158.32 -11.27 158.64 -12.16 Q 158.97 -13.04 159.22 -13.94 L 159.22 -13.94 L 160.5 -13.67 Q 160.29 -12.95 160.06 -12.27 Q 159.83 -11.59 159.55 -10.95 L 159.55 -10.95 L 163 -10.95 L 163 -14.21 L 164.29 -14.21 L 164.29 -10.95 L 170.37 -10.95 L 170.37 -9.71 L 164.29 -9.71 L 164.29 -6 L 169.75 -6 L 169.75 -4.78 L 164.29 -4.78 L 164.29 -0.46 Z M 193.95 -11.56 L 193.95 -10.91 Q 193.85 -8.01 193.75 -6.01 Q 193.65 -4.01 193.52 -2.72 Q 193.39 -1.43 193.21 -0.72 Q 193.03 -0.02 192.78 0.29 L 192.78 0.29 Q 192.49 0.65 192.19 0.79 Q 191.88 0.94 191.44 0.97 L 191.44 0.97 Q 191 1.02 190.31 1 Q 189.64 0.99 188.92 0.95 L 188.92 0.95 Q 188.89 0.66 188.78 0.32 Q 188.68 -0.02 188.5 -0.29 L 188.5 -0.29 Q 189.33 -0.2 190.03 -0.2 Q 190.72 -0.19 191.01 -0.19 L 191.01 -0.19 Q 191.27 -0.19 191.42 -0.23 Q 191.57 -0.27 191.71 -0.44 L 191.71 -0.44 Q 191.91 -0.66 192.07 -1.29 Q 192.24 -1.92 192.36 -3.09 Q 192.47 -4.27 192.57 -6.06 Q 192.66 -7.85 192.75 -10.39 L 192.75 -10.39 L 188.43 -10.39 Q 188.07 -9.52 187.67 -8.76 Q 187.27 -8.01 186.83 -7.41 L 186.83 -7.41 Q 186.66 -7.57 186.33 -7.78 Q 186 -7.99 185.79 -8.13 L 185.79 -8.13 Q 186.22 -8.69 186.6 -9.39 Q 186.98 -10.1 187.31 -10.9 Q 187.65 -11.7 187.92 -12.56 Q 188.19 -13.43 188.39 -14.3 L 188.39 -14.3 L 189.6 -14.01 Q 189.45 -13.38 189.27 -12.77 Q 189.09 -12.16 188.87 -11.56 L 188.87 -11.56 L 193.95 -11.56 Z M 182.34 -14.26 L 183.7 -14.01 Q 183.48 -13.38 183.26 -12.72 Q 183.04 -12.05 182.82 -11.51 L 182.82 -11.51 L 185.64 -11.51 L 185.64 -0.48 L 180.91 -0.48 L 180.91 0.87 L 179.76 0.87 L 179.76 -11.51 L 181.66 -11.51 Q 181.76 -11.82 181.87 -12.17 Q 181.97 -12.53 182.05 -12.89 Q 182.14 -13.26 182.21 -13.61 Q 182.29 -13.96 182.34 -14.26 L 182.34 -14.26 Z M 184.48 -6.82 L 184.48 -10.37 L 180.91 -10.37 L 180.91 -6.82 L 184.48 -6.82 Z M 191.27 -3.91 L 190.2 -3.25 Q 190.01 -3.64 189.71 -4.12 Q 189.41 -4.61 189.07 -5.13 Q 188.72 -5.66 188.34 -6.19 Q 187.97 -6.72 187.61 -7.17 L 187.61 -7.17 L 188.6 -7.75 Q 188.96 -7.29 189.34 -6.78 Q 189.72 -6.27 190.09 -5.75 Q 190.45 -5.24 190.76 -4.76 Q 191.06 -4.28 191.27 -3.91 L 191.27 -3.91 Z M 180.91 -1.62 L 184.48 -1.62 L 184.48 -5.7 L 180.91 -5.7 L 180.91 -1.62 Z M 207.11 -8.5 L 207.11 -7.8 L 210.41 -7.8 L 210.41 -5.03 L 206.06 -5.03 L 206.84 -4.83 Q 206.74 -4.64 206.64 -4.45 Q 206.53 -4.25 206.4 -4.06 L 206.4 -4.06 L 209.24 -4.06 L 209.42 -4.11 L 210.09 -3.83 Q 209.75 -2.92 209.22 -2.21 Q 208.69 -1.5 208.01 -0.94 L 208.01 -0.94 Q 208.54 -0.7 209 -0.45 Q 209.46 -0.2 209.83 0 L 209.83 0 L 208.95 0.77 Q 208.57 0.53 208.09 0.27 Q 207.6 0.02 207.06 -0.24 L 207.06 -0.24 Q 206.09 0.34 205.01 0.72 Q 203.93 1.1 202.74 1.34 L 202.74 1.34 Q 202.67 1.14 202.52 0.86 Q 202.37 0.58 202.23 0.41 L 202.23 0.41 Q 203.22 0.24 204.16 -0.04 Q 205.11 -0.32 205.92 -0.75 L 205.92 -0.75 Q 205.28 -1 204.64 -1.23 Q 204 -1.46 203.41 -1.65 L 203.41 -1.65 Q 203.68 -1.96 203.98 -2.34 Q 204.29 -2.72 204.58 -3.13 L 204.58 -3.13 L 202.67 -3.13 L 202.67 -4.06 L 205.21 -4.06 Q 205.36 -4.32 205.5 -4.56 Q 205.63 -4.79 205.75 -5.03 L 205.75 -5.03 L 202.9 -5.03 L 202.9 -7.8 L 206.11 -7.8 L 206.11 -8.5 L 203.37 -8.5 L 203.37 -10.34 L 202.23 -10.34 L 202.23 -11.31 L 203.37 -11.31 L 203.37 -13.04 L 206.11 -13.04 L 206.11 -14.23 L 207.11 -14.23 L 207.11 -13.04 L 210 -13.04 L 210 -11.31 L 211.16 -11.31 L 211.16 -10.34 L 210 -10.34 L 210 -8.5 L 207.11 -8.5 Z M 217.52 -9.84 L 216.36 -9.84 Q 216.12 -7.94 215.76 -6.32 Q 215.41 -4.71 214.81 -3.33 L 214.81 -3.33 Q 215.37 -2.18 216.07 -1.28 Q 216.77 -0.37 217.69 0.2 L 217.69 0.2 Q 217.5 0.37 217.28 0.62 Q 217.06 0.87 216.92 1.1 L 216.92 1.1 Q 216.09 0.53 215.42 -0.28 Q 214.76 -1.09 214.25 -2.11 L 214.25 -2.11 Q 213.67 -1.05 212.93 -0.19 Q 212.18 0.68 211.17 1.39 L 211.17 1.39 Q 211.09 1.21 210.88 0.91 Q 210.66 0.61 210.48 0.44 L 210.48 0.44 Q 211.55 -0.27 212.34 -1.22 Q 213.13 -2.18 213.67 -3.38 L 213.67 -3.38 Q 213.27 -4.39 212.97 -5.51 Q 212.67 -6.63 212.43 -7.87 L 212.43 -7.87 Q 212.02 -6.83 211.53 -6 L 211.53 -6 Q 211.4 -6.14 211.12 -6.38 Q 210.85 -6.63 210.66 -6.75 L 210.66 -6.75 Q 211.09 -7.41 211.42 -8.25 Q 211.75 -9.1 212.02 -10.05 Q 212.3 -11 212.49 -12.03 Q 212.69 -13.06 212.82 -14.09 L 212.82 -14.09 L 213.91 -13.92 Q 213.71 -12.44 213.37 -10.98 L 213.37 -10.98 L 217.52 -10.98 L 217.52 -9.84 Z M 206.11 -12.16 L 204.46 -12.16 L 204.46 -11.25 L 206.11 -11.25 L 206.11 -12.16 Z M 208.88 -12.16 L 207.11 -12.16 L 207.11 -11.25 L 208.88 -11.25 L 208.88 -12.16 Z M 204.46 -9.38 L 206.11 -9.38 L 206.11 -10.4 L 204.46 -10.4 L 204.46 -9.38 Z M 207.11 -9.38 L 208.88 -9.38 L 208.88 -10.4 L 207.11 -10.4 L 207.11 -9.38 Z M 215.22 -9.84 L 213.1 -9.84 Q 213.28 -8.48 213.56 -7.22 Q 213.84 -5.95 214.23 -4.81 L 214.23 -4.81 Q 214.61 -5.92 214.84 -7.17 Q 215.07 -8.42 215.22 -9.84 L 215.22 -9.84 Z M 209.29 -6.94 L 207.11 -6.94 L 207.11 -5.88 L 209.29 -5.88 L 209.29 -6.94 Z M 203.98 -6.94 L 203.98 -5.88 L 206.11 -5.88 L 206.11 -6.94 L 203.98 -6.94 Z M 208.62 -3.13 L 205.79 -3.13 Q 205.6 -2.84 205.41 -2.58 Q 205.22 -2.33 205.04 -2.09 L 205.04 -2.09 Q 206.01 -1.79 206.98 -1.38 L 206.98 -1.38 Q 207.47 -1.75 207.89 -2.18 Q 208.32 -2.62 208.62 -3.13 L 208.62 -3.13 Z M 227 -7.21 L 227 -5.1 L 225.79 -5.1 L 225.79 -8.18 L 227.15 -8.18 L 226.81 -13.23 Q 227.19 -13.29 227.63 -13.4 Q 228.07 -13.5 228.51 -13.61 Q 228.96 -13.72 229.37 -13.84 Q 229.79 -13.96 230.1 -14.06 L 230.1 -14.06 L 230.67 -13.28 Q 230.11 -13.07 229.41 -12.91 Q 228.7 -12.75 228.04 -12.61 L 228.04 -12.61 L 228.11 -11.78 L 230.57 -11.78 L 230.57 -10.91 L 228.16 -10.91 L 228.23 -10 L 230.64 -10 L 230.64 -9.13 L 228.28 -9.13 L 228.34 -8.18 L 237.66 -8.18 Q 237.69 -8.42 237.71 -8.64 Q 237.73 -8.87 237.76 -9.13 L 237.76 -9.13 L 235.3 -9.13 L 235.3 -10 L 237.83 -10 L 237.92 -10.91 L 235.4 -10.91 L 235.4 -11.78 L 237.97 -11.78 L 238.02 -12.7 L 235.31 -12.7 L 235.31 -13.57 L 239.24 -13.57 Q 239.21 -12.94 239.16 -12.23 Q 239.12 -11.53 239.07 -10.81 Q 239.02 -10.1 238.97 -9.42 Q 238.92 -8.74 238.87 -8.18 L 238.87 -8.18 L 240.19 -8.18 L 240.19 -5.1 L 238.95 -5.1 L 238.95 -7.21 L 227 -7.21 Z M 234.91 -11.97 L 234.24 -11.34 Q 234.04 -11.53 233.72 -11.76 Q 233.41 -11.99 233.07 -12.21 L 233.07 -12.21 Q 232.68 -11.92 232.28 -11.65 Q 231.88 -11.39 231.49 -11.19 L 231.49 -11.19 Q 231.39 -11.31 231.17 -11.49 Q 230.95 -11.68 230.78 -11.8 L 230.78 -11.8 Q 231.17 -11.99 231.55 -12.21 Q 231.93 -12.43 232.29 -12.67 L 232.29 -12.67 Q 232 -12.85 231.69 -13 Q 231.39 -13.14 231.1 -13.28 L 231.1 -13.28 L 231.71 -13.84 Q 232.02 -13.7 232.33 -13.55 Q 232.65 -13.4 232.99 -13.21 L 232.99 -13.21 Q 233.43 -13.6 233.78 -14.04 L 233.78 -14.04 L 234.67 -13.8 Q 234.26 -13.28 233.73 -12.77 L 233.73 -12.77 Q 234.07 -12.55 234.37 -12.35 Q 234.67 -12.16 234.91 -11.97 L 234.91 -11.97 Z M 234.96 -8.93 L 234.28 -8.31 Q 234.06 -8.55 233.74 -8.79 Q 233.43 -9.03 233.05 -9.3 L 233.05 -9.3 Q 232.63 -8.96 232.2 -8.7 Q 231.78 -8.43 231.35 -8.19 L 231.35 -8.19 Q 231.27 -8.33 231.05 -8.53 Q 230.83 -8.72 230.66 -8.86 L 230.66 -8.86 Q 231.08 -9.04 231.48 -9.28 Q 231.88 -9.52 232.27 -9.79 L 232.27 -9.79 Q 231.97 -9.98 231.65 -10.15 Q 231.34 -10.32 231.05 -10.46 L 231.05 -10.46 L 231.68 -11.02 Q 232 -10.88 232.32 -10.7 Q 232.65 -10.52 232.99 -10.34 L 232.99 -10.34 Q 233.22 -10.54 233.44 -10.77 Q 233.65 -11 233.84 -11.24 L 233.84 -11.24 L 234.72 -10.95 Q 234.29 -10.39 233.73 -9.86 L 233.73 -9.86 Q 234.09 -9.62 234.4 -9.39 Q 234.72 -9.16 234.96 -8.93 L 234.96 -8.93 Z M 240.53 -3.08 L 240.53 -2.01 L 233.73 -2.01 L 233.73 -0.05 Q 233.73 0.44 233.6 0.7 Q 233.46 0.95 233.07 1.09 L 233.07 1.09 Q 232.66 1.22 232.01 1.24 Q 231.35 1.26 230.33 1.26 L 230.33 1.26 Q 230.28 1.02 230.15 0.72 Q 230.03 0.43 229.89 0.19 L 229.89 0.19 Q 230.69 0.22 231.33 0.22 Q 231.97 0.22 232.15 0.22 L 232.15 0.22 Q 232.37 0.2 232.44 0.15 Q 232.51 0.1 232.51 -0.09 L 232.51 -0.09 L 232.51 -2.01 L 225.42 -2.01 L 225.42 -3.08 L 232.51 -3.08 L 232.51 -3.81 Q 233.19 -4.05 233.89 -4.39 Q 234.6 -4.73 235.21 -5.1 L 235.21 -5.1 L 228.57 -5.1 L 228.57 -6.05 L 236.56 -6.05 L 236.81 -6.12 L 237.58 -5.49 Q 236.78 -4.88 235.76 -4.33 Q 234.75 -3.79 233.73 -3.38 L 233.73 -3.38 L 233.73 -3.08 L 240.53 -3.08 Z M 250.12 -7.21 L 250.12 -5.1 L 248.91 -5.1 L 248.91 -8.18 L 250.27 -8.18 L 249.93 -13.23 Q 250.31 -13.29 250.75 -13.4 Q 251.19 -13.5 251.63 -13.61 Q 252.08 -13.72 252.49 -13.84 Q 252.91 -13.96 253.22 -14.06 L 253.22 -14.06 L 253.79 -13.28 Q 253.23 -13.07 252.53 -12.91 Q 251.82 -12.75 251.16 -12.61 L 251.16 -12.61 L 251.23 -11.78 L 253.69 -11.78 L 253.69 -10.91 L 251.28 -10.91 L 251.35 -10 L 253.76 -10 L 253.76 -9.13 L 251.4 -9.13 L 251.46 -8.18 L 260.78 -8.18 Q 260.81 -8.42 260.83 -8.64 Q 260.85 -8.87 260.88 -9.13 L 260.88 -9.13 L 258.42 -9.13 L 258.42 -10 L 260.95 -10 L 261.04 -10.91 L 258.52 -10.91 L 258.52 -11.78 L 261.09 -11.78 L 261.14 -12.7 L 258.43 -12.7 L 258.43 -13.57 L 262.36 -13.57 Q 262.33 -12.94 262.28 -12.23 Q 262.24 -11.53 262.19 -10.81 Q 262.14 -10.1 262.09 -9.42 Q 262.04 -8.74 261.99 -8.18 L 261.99 -8.18 L 263.31 -8.18 L 263.31 -5.1 L 262.07 -5.1 L 262.07 -7.21 L 250.12 -7.21 Z M 258.03 -11.97 L 257.36 -11.34 Q 257.16 -11.53 256.84 -11.76 Q 256.53 -11.99 256.19 -12.21 L 256.19 -12.21 Q 255.8 -11.92 255.4 -11.65 Q 255 -11.39 254.61 -11.19 L 254.61 -11.19 Q 254.51 -11.31 254.29 -11.49 Q 254.07 -11.68 253.9 -11.8 L 253.9 -11.8 Q 254.29 -11.99 254.67 -12.21 Q 255.05 -12.43 255.41 -12.67 L 255.41 -12.67 Q 255.12 -12.85 254.81 -13 Q 254.51 -13.14 254.22 -13.28 L 254.22 -13.28 L 254.83 -13.84 Q 255.14 -13.7 255.45 -13.55 Q 255.77 -13.4 256.11 -13.21 L 256.11 -13.21 Q 256.55 -13.6 256.9 -14.04 L 256.9 -14.04 L 257.79 -13.8 Q 257.38 -13.28 256.85 -12.77 L 256.85 -12.77 Q 257.19 -12.55 257.49 -12.35 Q 257.79 -12.16 258.03 -11.97 L 258.03 -11.97 Z M 258.08 -8.93 L 257.4 -8.31 Q 257.18 -8.55 256.86 -8.79 Q 256.55 -9.03 256.17 -9.3 L 256.17 -9.3 Q 255.75 -8.96 255.32 -8.7 Q 254.9 -8.43 254.47 -8.19 L 254.47 -8.19 Q 254.39 -8.33 254.17 -8.53 Q 253.95 -8.72 253.78 -8.86 L 253.78 -8.86 Q 254.2 -9.04 254.6 -9.28 Q 255 -9.52 255.39 -9.79 L 255.39 -9.79 Q 255.09 -9.98 254.77 -10.15 Q 254.46 -10.32 254.17 -10.46 L 254.17 -10.46 L 254.8 -11.02 Q 255.12 -10.88 255.44 -10.7 Q 255.77 -10.52 256.11 -10.34 L 256.11 -10.34 Q 256.34 -10.54 256.56 -10.77 Q 256.77 -11 256.96 -11.24 L 256.96 -11.24 L 257.84 -10.95 Q 257.41 -10.39 256.85 -9.86 L 256.85 -9.86 Q 257.21 -9.62 257.52 -9.39 Q 257.84 -9.16 258.08 -8.93 L 258.08 -8.93 Z M 263.65 -3.08 L 263.65 -2.01 L 256.85 -2.01 L 256.85 -0.05 Q 256.85 0.44 256.72 0.7 Q 256.58 0.95 256.19 1.09 L 256.19 1.09 Q 255.78 1.22 255.13 1.24 Q 254.47 1.26 253.45 1.26 L 253.45 1.26 Q 253.4 1.02 253.27 0.72 Q 253.15 0.43 253.01 0.19 L 253.01 0.19 Q 253.81 0.22 254.45 0.22 Q 255.09 0.22 255.27 0.22 L 255.27 0.22 Q 255.49 0.2 255.56 0.15 Q 255.63 0.1 255.63 -0.09 L 255.63 -0.09 L 255.63 -2.01 L 248.54 -2.01 L 248.54 -3.08 L 255.63 -3.08 L 255.63 -3.81 Q 256.31 -4.05 257.01 -4.39 Q 257.72 -4.73 258.33 -5.1 L 258.33 -5.1 L 251.69 -5.1 L 251.69 -6.05 L 259.68 -6.05 L 259.93 -6.12 L 260.7 -5.49 Q 259.9 -4.88 258.88 -4.33 Q 257.87 -3.79 256.85 -3.38 L 256.85 -3.38 L 256.85 -3.08 L 263.65 -3.08 Z M 278.55 -7.28 L 279.85 -7.02 Q 279.68 -6.66 279.5 -6.32 Q 279.31 -5.98 279.12 -5.68 L 279.12 -5.68 L 284.67 -5.68 L 284.67 1.36 L 283.39 1.36 L 283.39 0.7 L 275.15 0.7 L 275.15 1.36 L 273.9 1.36 L 273.9 -5.68 L 277.9 -5.68 Q 277.93 -5.76 277.96 -5.82 Q 277.98 -5.88 278.02 -5.97 L 278.02 -5.97 L 278.27 -6.55 Q 278.31 -6.63 278.33 -6.7 Q 278.36 -6.77 278.39 -6.83 L 278.39 -6.83 L 277.37 -6.83 L 277.37 -9.08 Q 276.11 -8.48 274.87 -7.92 Q 273.63 -7.36 272.61 -6.92 L 272.61 -6.92 L 272.15 -7.94 Q 272.65 -8.13 273.25 -8.37 Q 273.85 -8.62 274.53 -8.9 Q 275.21 -9.18 275.94 -9.49 Q 276.66 -9.79 277.37 -10.1 L 277.37 -10.1 L 277.37 -12.38 L 272.36 -12.38 L 272.36 -13.46 L 278.55 -13.46 L 278.55 -7.28 Z M 279.4 -13.41 L 285.75 -13.41 L 285.75 -6.68 L 284.6 -6.68 L 284.6 -9.23 Q 283.37 -8.64 282.17 -8.07 Q 280.96 -7.5 279.97 -7.04 L 279.97 -7.04 L 279.46 -8.04 Q 279.96 -8.23 280.55 -8.48 Q 281.15 -8.74 281.81 -9.03 Q 282.47 -9.32 283.18 -9.63 Q 283.88 -9.95 284.6 -10.25 L 284.6 -10.25 L 284.6 -12.34 L 279.4 -12.34 L 279.4 -13.41 Z M 272.88 -10.97 L 273.45 -11.76 Q 273.79 -11.66 274.16 -11.53 Q 274.53 -11.41 274.9 -11.25 Q 275.26 -11.1 275.59 -10.95 Q 275.91 -10.79 276.13 -10.66 L 276.13 -10.66 L 275.55 -9.74 Q 275.33 -9.89 275.02 -10.06 Q 274.7 -10.23 274.35 -10.4 Q 273.99 -10.56 273.61 -10.7 Q 273.22 -10.85 272.88 -10.97 L 272.88 -10.97 Z M 279.92 -10.85 L 280.45 -11.7 Q 280.81 -11.61 281.22 -11.48 Q 281.64 -11.36 282.03 -11.22 Q 282.42 -11.08 282.77 -10.93 Q 283.12 -10.78 283.37 -10.63 L 283.37 -10.63 L 282.85 -9.67 Q 282.59 -9.83 282.24 -9.99 Q 281.89 -10.15 281.5 -10.3 Q 281.11 -10.46 280.7 -10.6 Q 280.3 -10.74 279.92 -10.85 L 279.92 -10.85 Z M 283.39 -3.03 L 283.39 -4.68 L 275.15 -4.68 L 275.15 -3.03 L 283.39 -3.03 Z M 275.15 -0.31 L 283.39 -0.31 L 283.39 -2.02 L 275.15 -2.02 L 275.15 -0.31 Z M 309.47 -12.9 L 309.47 -7.79 L 301.84 -7.79 L 301.84 -12.9 L 303.93 -12.9 L 303.93 -14.2 L 304.96 -14.2 L 304.96 -12.9 L 306.19 -12.9 L 306.19 -14.2 L 307.22 -14.2 L 307.22 -12.9 L 309.47 -12.9 Z M 301.48 -6.89 L 300.48 -6.89 L 300.48 -0.1 Q 300.48 0.36 300.38 0.61 Q 300.29 0.87 300.02 1.02 L 300.02 1.02 Q 299.74 1.16 299.34 1.18 Q 298.93 1.21 298.33 1.21 L 298.33 1.21 Q 298.3 0.97 298.2 0.65 Q 298.1 0.34 297.98 0.1 L 297.98 0.1 Q 298.38 0.14 298.73 0.14 Q 299.08 0.14 299.18 0.12 L 299.18 0.12 Q 299.4 0.12 299.4 -0.12 L 299.4 -0.12 L 299.4 -1.75 L 296.89 -1.75 L 296.89 1.38 L 295.8 1.38 L 295.8 -6.78 L 294.88 -6.78 L 294.88 -9.1 L 295.73 -9.1 L 295.73 -13.63 L 300.53 -13.63 L 300.53 -9.1 L 301.51 -9.1 L 301.51 -6.9 L 309.88 -6.9 L 309.88 -5.95 L 301.48 -5.95 L 301.48 -6.89 Z M 299.46 -12.6 L 296.75 -12.6 L 296.75 -11.53 L 298.55 -11.53 L 298.55 -9.1 L 299.46 -9.1 L 299.46 -12.6 Z M 308.45 -10.79 L 308.45 -12 L 307.09 -12 L 307.09 -10.79 L 308.45 -10.79 Z M 302.82 -12 L 302.82 -10.79 L 304.11 -10.79 L 304.11 -12 L 302.82 -12 Z M 304.96 -10.79 L 306.24 -10.79 L 306.24 -12 L 304.96 -12 L 304.96 -10.79 Z M 296.75 -10.66 L 296.75 -9.1 L 297.81 -9.1 L 297.81 -10.66 L 296.75 -10.66 Z M 308.45 -8.69 L 308.45 -9.93 L 307.09 -9.93 L 307.09 -8.69 L 308.45 -8.69 Z M 302.82 -9.93 L 302.82 -8.69 L 304.11 -8.69 L 304.11 -9.93 L 302.82 -9.93 Z M 306.24 -9.93 L 304.96 -9.93 L 304.96 -8.69 L 306.24 -8.69 L 306.24 -9.93 Z M 300.42 -7.06 L 300.42 -8.18 L 295.92 -8.18 L 295.92 -7.06 L 300.42 -7.06 Z M 296.89 -4.83 L 299.4 -4.83 L 299.4 -6.04 L 296.89 -6.04 L 296.89 -4.83 Z M 309.06 -1.99 L 302.29 -1.99 L 302.29 -5.13 L 309.06 -5.13 L 309.06 -1.99 Z M 303.42 -4.28 L 303.42 -2.84 L 307.9 -2.84 L 307.9 -4.28 L 303.42 -4.28 Z M 296.89 -2.67 L 299.4 -2.67 L 299.4 -3.93 L 296.89 -3.93 L 296.89 -2.67 Z M 307.51 -0.02 L 310.05 -0.02 L 310.05 0.97 L 301.27 0.97 L 301.27 -0.02 L 303.74 -0.02 Q 303.6 -0.41 303.45 -0.82 Q 303.3 -1.24 303.13 -1.62 L 303.13 -1.62 L 304.1 -1.89 Q 304.3 -1.46 304.5 -0.94 Q 304.69 -0.43 304.83 -0.02 L 304.83 -0.02 L 306.48 -0.02 Q 306.68 -0.46 306.88 -1 Q 307.07 -1.55 307.21 -1.94 L 307.21 -1.94 L 308.35 -1.62 Q 308.13 -1.21 307.91 -0.79 Q 307.7 -0.37 307.51 -0.02 L 307.51 -0.02 Z M 326.11 -9.42 L 326.11 -10.2 Q 325.77 -9.93 325.4 -9.67 Q 325.02 -9.42 324.63 -9.18 L 324.63 -9.18 Q 324.5 -9.35 324.25 -9.59 Q 324 -9.83 323.82 -9.96 L 323.82 -9.96 Q 324.53 -10.37 325.2 -10.89 Q 325.87 -11.41 326.46 -11.98 Q 327.05 -12.55 327.53 -13.15 Q 328.02 -13.75 328.34 -14.37 L 328.34 -14.37 L 329.49 -14.01 Q 329.43 -13.87 329.34 -13.74 Q 329.26 -13.6 329.17 -13.46 L 329.17 -13.46 Q 329.56 -13.04 330.06 -12.6 Q 330.55 -12.16 331.08 -11.75 Q 331.62 -11.34 332.18 -10.99 Q 332.74 -10.64 333.27 -10.39 L 333.27 -10.39 Q 333.12 -10.18 332.95 -9.86 Q 332.79 -9.54 332.71 -9.3 L 332.71 -9.3 Q 332.33 -9.52 331.94 -9.78 Q 331.55 -10.03 331.16 -10.34 L 331.16 -10.34 L 331.16 -9.42 L 326.11 -9.42 Z M 324.16 -5.73 L 324.16 -5.24 Q 324.11 -3.69 324.05 -2.62 Q 324 -1.55 323.94 -0.84 Q 323.87 -0.14 323.77 0.25 Q 323.68 0.63 323.54 0.8 L 323.54 0.8 Q 323.37 1.02 323.18 1.11 Q 322.98 1.21 322.69 1.24 L 322.69 1.24 Q 322.46 1.28 322.1 1.28 Q 321.74 1.28 321.37 1.24 L 321.37 1.24 Q 321.33 1 321.27 0.73 Q 321.2 0.46 321.08 0.26 L 321.08 0.26 Q 321.47 0.29 321.78 0.3 Q 322.1 0.31 322.25 0.31 L 322.25 0.31 Q 322.39 0.31 322.48 0.28 Q 322.58 0.26 322.66 0.12 L 322.66 0.12 Q 322.75 0.02 322.81 -0.28 Q 322.88 -0.58 322.93 -1.14 Q 322.98 -1.7 323.03 -2.56 Q 323.07 -3.42 323.1 -4.66 L 323.1 -4.66 L 318.46 -4.66 L 318.46 -13.46 L 324.14 -13.46 L 324.14 -12.39 L 322.01 -12.39 L 322.01 -10.83 L 323.8 -10.83 L 323.8 -9.83 L 322.01 -9.83 L 322.01 -8.33 L 323.82 -8.33 L 323.82 -7.33 L 322.01 -7.33 L 322.01 -5.73 L 324.16 -5.73 Z M 326.4 -10.42 L 331.04 -10.42 Q 330.38 -10.91 329.74 -11.48 Q 329.1 -12.05 328.58 -12.63 L 328.58 -12.63 Q 327.61 -11.41 326.4 -10.42 L 326.4 -10.42 Z M 320.99 -12.39 L 319.48 -12.39 L 319.48 -10.83 L 320.99 -10.83 L 320.99 -12.39 Z M 320.99 -8.33 L 320.99 -9.83 L 319.48 -9.83 L 319.48 -8.33 L 320.99 -8.33 Z M 329 -4.17 L 329 -8.08 L 332.49 -8.08 L 332.49 -4.17 L 329 -4.17 Z M 324.85 -4.17 L 324.85 -8.08 L 328.2 -8.08 L 328.2 -4.17 L 324.85 -4.17 Z M 319.48 -7.33 L 319.48 -5.73 L 320.99 -5.73 L 320.99 -7.33 L 319.48 -7.33 Z M 329.92 -7.21 L 329.92 -5.05 L 331.53 -5.05 L 331.53 -7.21 L 329.92 -7.21 Z M 325.74 -7.21 L 325.74 -5.05 L 327.27 -5.05 L 327.27 -7.21 L 325.74 -7.21 Z M 322.9 -1.97 L 322.32 -1.73 Q 322.17 -2.18 321.9 -2.81 Q 321.64 -3.45 321.35 -3.98 L 321.35 -3.98 L 321.93 -4.18 Q 322.2 -3.64 322.48 -3.03 Q 322.76 -2.41 322.9 -1.97 L 322.9 -1.97 Z M 318.31 0.17 L 317.56 -0.12 Q 317.7 -0.48 317.81 -0.95 Q 317.92 -1.43 318.02 -1.93 Q 318.12 -2.43 318.2 -2.92 Q 318.27 -3.42 318.33 -3.84 L 318.33 -3.84 L 319.04 -3.6 Q 318.99 -3.18 318.91 -2.68 Q 318.84 -2.18 318.74 -1.67 Q 318.65 -1.16 318.54 -0.68 Q 318.43 -0.2 318.31 0.17 L 318.31 0.17 Z M 320.37 -3.71 L 320.98 -3.83 Q 321.08 -3.5 321.18 -3.14 Q 321.28 -2.77 321.38 -2.41 Q 321.47 -2.04 321.54 -1.7 Q 321.61 -1.36 321.66 -1.09 L 321.66 -1.09 L 321.01 -0.94 Q 320.93 -1.5 320.74 -2.27 Q 320.55 -3.04 320.37 -3.71 L 320.37 -3.71 Z M 330.28 -3.72 L 331.42 -3.54 Q 331.33 -3.04 331.21 -2.59 Q 331.09 -2.14 330.92 -1.7 L 330.92 -1.7 Q 331.53 -1.26 332.15 -0.77 Q 332.78 -0.27 333.13 0.12 L 333.13 0.12 L 332.37 0.99 Q 332.08 0.63 331.56 0.18 Q 331.04 -0.27 330.48 -0.71 L 330.48 -0.71 Q 329.85 0.49 329 1.29 L 329 1.29 Q 328.85 1.16 328.56 0.93 Q 328.27 0.7 328.05 0.56 L 328.05 0.56 Q 328.93 -0.17 329.49 -1.27 Q 330.04 -2.36 330.28 -3.72 L 330.28 -3.72 Z M 326.08 -3.64 L 327.15 -3.43 Q 327.08 -3.09 326.99 -2.75 Q 326.89 -2.41 326.77 -2.07 L 326.77 -2.07 Q 327.3 -1.73 327.83 -1.33 Q 328.36 -0.94 328.66 -0.61 L 328.66 -0.61 L 327.98 0.22 Q 327.74 -0.07 327.3 -0.43 Q 326.86 -0.78 326.38 -1.12 L 326.38 -1.12 Q 326.04 -0.39 325.62 0.23 Q 325.19 0.85 324.67 1.33 L 324.67 1.33 Q 324.53 1.19 324.27 0.96 Q 324 0.73 323.82 0.6 L 323.82 0.6 Q 324.67 -0.15 325.23 -1.23 Q 325.79 -2.31 326.08 -3.64 L 326.08 -3.64 Z M 319.36 -3.52 L 320.01 -3.59 Q 320.06 -3.23 320.09 -2.83 Q 320.13 -2.43 320.16 -2.02 Q 320.2 -1.62 320.22 -1.23 Q 320.25 -0.85 320.25 -0.53 L 320.25 -0.53 L 319.57 -0.46 Q 319.57 -1.09 319.51 -1.94 Q 319.45 -2.79 319.36 -3.52 L 319.36 -3.52 Z" stroke-linecap="round" />
</g>
</g>
</g>
</svg>